<svg width="100" height="86" viewBox="0 0 100 86" fill="none" xmlns="http://www.w3.org/2000/svg">
<path d="M49.743 0.992088C48.8202 1.03262 47.9229 1.29929 47.1342 1.76736C46.3455 2.23542 45.6911 2.8897 45.2315 3.66956L1.43716 77.504C0.958086 78.3166 0.707127 79.2373 0.709489 80.1741C0.711851 81.1109 0.96745 82.0307 1.45062 82.8409C1.93378 83.6512 2.6275 84.3233 3.46211 84.7901C4.29671 85.2568 5.24281 85.5017 6.20539 85.5H93.7942C94.7567 85.5017 95.7028 85.2568 96.5374 84.7901C97.372 84.3233 98.0658 83.6512 98.5489 82.8409C99.0321 82.0307 99.2877 81.1109 99.2901 80.1741C99.2924 79.2373 99.0415 78.3166 98.5624 77.504L54.7313 3.66956C54.2315 2.82156 53.5019 2.12345 52.6223 1.6513C51.7427 1.17916 50.7467 0.951115 49.743 0.992088V0.992088ZM42.9575 27.9877H57.0421L54.6947 60.8518H45.3049L42.9575 27.9877ZM49.9998 65.5467C52.5927 65.5467 54.6947 67.6488 54.6947 70.2416C54.6947 72.8345 52.5927 74.9365 49.9998 74.9365C47.4069 74.9365 45.3049 72.8345 45.3049 70.2416C45.3049 67.6488 47.4069 65.5467 49.9998 65.5467Z" fill="white"/>
</svg>
