<svg width="622" height="409" viewBox="0 0 622 409" fill="none" xmlns="http://www.w3.org/2000/svg">
<path d="M48.2185 72.4704L50.2185 75.9345C51.3385 75.2879 52.0767 74.1398 52.2002 72.8525L48.2185 72.4704ZM63.911 4.82938L65.3256 1.08787C64.3328 0.712514 63.2316 0.747112 62.2643 1.18404C61.2971 1.62097 60.5431 2.42441 60.1685 3.41746L63.911 4.82938ZM4 98L2 94.5359C0.762396 95.2504 1.84926e-07 96.5709 0 98C-1.84926e-07 99.4291 0.762395 100.75 2 101.464L4 98ZM48.2185 123.53L52.2002 123.148C52.0767 121.86 51.3385 120.712 50.2185 120.066L48.2185 123.53ZM285.47 360.781L288.934 358.781C288.288 357.661 287.14 356.923 285.852 356.8L285.47 360.781ZM311 405L307.536 407C308.25 408.238 309.571 409 311 409C312.429 409 313.75 408.238 314.464 407L311 405ZM336.53 360.782L336.148 356.8C334.86 356.923 333.712 357.662 333.065 358.782L336.53 360.782ZM573.781 123.53L571.781 120.066C570.661 120.712 569.923 121.86 569.8 123.148L573.781 123.53ZM618 98L620 101.464C621.238 100.75 622 99.4291 622 98C622 96.5709 621.238 95.2504 620 94.5359L618 98ZM573.781 72.4704L569.8 72.8525C569.923 74.1398 570.662 75.2879 571.781 75.9345L573.781 72.4704ZM558.089 4.82936L561.832 3.41745C561.457 2.4244 560.703 1.62096 559.736 1.18403C558.768 0.747097 557.667 0.712499 556.674 1.08785L558.089 4.82936ZM476.689 35.6054L475.275 31.8639C473.21 32.6446 472.168 34.9501 472.946 37.0157L476.689 35.6054ZM145.311 35.6054L149.054 37.0157C149.832 34.9501 148.79 32.6446 146.725 31.8639L145.311 35.6054ZM52.2002 72.8525C54.4297 49.6178 59.7167 27.2791 67.6535 6.24129L60.1685 3.41746C51.9851 25.1088 46.5348 48.1397 44.2368 72.0884L52.2002 72.8525ZM6 101.464L50.2185 75.9345L46.2185 69.0063L2 94.5359L6 101.464ZM50.2185 120.066L6 94.5359L2 101.464L46.2185 126.994L50.2185 120.066ZM285.852 356.8C162.336 344.948 64.0524 246.664 52.2002 123.148L44.2368 123.912C56.4549 251.242 157.758 352.545 285.088 364.763L285.852 356.8ZM314.464 403L288.934 358.781L282.006 362.781L307.536 407L314.464 403ZM333.065 358.782L307.536 403L314.464 407L339.994 362.782L333.065 358.782ZM569.8 123.148C557.948 246.664 459.664 344.948 336.148 356.8L336.912 364.763C464.242 352.545 565.545 251.242 577.763 123.912L569.8 123.148ZM616 94.5359L571.781 120.066L575.781 126.994L620 101.464L616 94.5359ZM571.781 75.9345L616 101.464L620 94.5359L575.781 69.0063L571.781 75.9345ZM554.347 6.24128C562.283 27.2791 567.57 49.6178 569.8 72.8525L577.763 72.0884C575.465 48.1397 570.015 25.1088 561.832 3.41745L554.347 6.24128ZM556.674 1.08785L475.275 31.8639L478.104 39.347L559.504 8.57087L556.674 1.08785ZM472.946 37.0157C480.09 55.9766 484 76.5271 484 98H492C492 75.549 487.911 54.0439 480.432 34.1952L472.946 37.0157ZM484 98C484 193.545 406.545 271 311 271V279C410.964 279 492 197.964 492 98H484ZM311 271C215.455 271 138 193.545 138 98H130C130 197.964 211.036 279 311 279V271ZM138 98C138 76.5271 141.91 55.9766 149.054 37.0157L141.568 34.1952C134.089 54.0439 130 75.549 130 98H138ZM146.725 31.8639L65.3256 1.08787L62.4964 8.57088L143.896 39.347L146.725 31.8639Z" fill="white"/>
</svg>
